{
  "accessors": [
    {
      "bufferView": 2,
      "componentType": 5126,
      "count": 29953,
      "max": [
        269.21633911132812,
        336.19757080078125,
        10.070175170898438
      ],
      "min": [
        -268.365234375,
        -336.13021850585938,
        -25.605094909667969
      ],
      "type": "VEC3"
    },
    {
      "bufferView": 2,
      "byteOffset": 359436,
      "componentType": 5126,
      "count": 29953,
      "max": [
        0.90330129861831665,
        0.9913676381111145,
        0.99999940395355225
      ],
      "min": [
        -0.99907159805297852,
        -0.9473690390586853,
        0.042636916041374207
      ],
      "type": "VEC3"
    },
    {
      "bufferView": 3,
      "componentType": 5126,
      "count": 29953,
      "max": [
        1,
        0.43029534816741943,
        0.93649375438690186,
        1
      ],
      "min": [
        -0.75408279895782471,
        -0.35111624002456665,
        -0.99905192852020264,
        -1
      ],
      "type": "VEC4"
    },
    {
      "bufferView": 1,
      "componentType": 5126,
      "count": 29953,
      "max": [
        1,
        1
      ],
      "min": [
        -1.9679774254655058e-07,
        0
      ],
      "type": "VEC2"
    },
    {
      "bufferView": 0,
      "componentType": 5125,
      "count": 110127,
      "max": [
        29952
      ],
      "min": [
        0
      ],
      "type": "SCALAR"
    },
    {
      "bufferView": 2,
      "byteOffset": 718872,
      "componentType": 5126,
      "count": 4,
      "max": [
        590.55120849609375,
        160.43307495117188,
        0
      ],
      "min": [
        -590.55120849609375,
        -160.43307495117188,
        0
      ],
      "type": "VEC3"
    },
    {
      "bufferView": 2,
      "byteOffset": 718920,
      "componentType": 5126,
      "count": 4,
      "max": [
        0,
        0,
        1
      ],
      "min": [
        0,
        0,
        1
      ],
      "type": "VEC3"
    },
    {
      "bufferView": 3,
      "byteOffset": 479248,
      "componentType": 5126,
      "count": 4,
      "max": [
        1,
        0,
        0,
        1
      ],
      "min": [
        1,
        0,
        0,
        1
      ],
      "type": "VEC4"
    },
    {
      "bufferView": 1,
      "byteOffset": 239624,
      "componentType": 5126,
      "count": 4,
      "max": [
        1,
        1
      ],
      "min": [
        0,
        0
      ],
      "type": "VEC2"
    },
    {
      "bufferView": 1,
      "byteOffset": 239656,
      "componentType": 5126,
      "count": 4,
      "max": [
        1,
        1
      ],
      "min": [
        0,
        0
      ],
      "type": "VEC2"
    },
    {
      "bufferView": 0,
      "byteOffset": 440508,
      "componentType": 5125,
      "count": 6,
      "max": [
        3
      ],
      "min": [
        0
      ],
      "type": "SCALAR"
    },
    {
      "bufferView": 2,
      "byteOffset": 718968,
      "componentType": 5126,
      "count": 20,
      "max": [
        16.934375762939453,
        336.220458984375,
        0
      ],
      "min": [
        -33.134159088134766,
        -336.220458984375,
        -8.2438507080078125
      ],
      "type": "VEC3"
    },
    {
      "bufferView": 2,
      "byteOffset": 719208,
      "componentType": 5126,
      "count": 20,
      "max": [
        5.5615799965380575e-07,
        0.036921232938766479,
        0.99998635053634644
      ],
      "min": [
        -1.382132630567412e-08,
        -0.036921229213476181,
        0.99931818246841431
      ],
      "type": "VEC3"
    },
    {
      "bufferView": 3,
      "byteOffset": 479312,
      "componentType": 5126,
      "count": 20,
      "max": [
        1,
        1.2403842220010119e-06,
        2.6428130794897697e-08,
        1
      ],
      "min": [
        1,
        -2.3919017166917911e-07,
        -5.5666174603175023e-07,
        1
      ],
      "type": "VEC4"
    },
    {
      "bufferView": 1,
      "byteOffset": 239688,
      "componentType": 5126,
      "count": 20,
      "max": [
        0.53146547079086304,
        1
      ],
      "min": [
        0.4384339451789856,
        0
      ],
      "type": "VEC2"
    },
    {
      "bufferView": 1,
      "byteOffset": 239848,
      "componentType": 5126,
      "count": 20,
      "max": [
        0.53146547079086304,
        1
      ],
      "min": [
        0.4384339451789856,
        0
      ],
      "type": "VEC2"
    },
    {
      "bufferView": 0,
      "byteOffset": 440532,
      "componentType": 5125,
      "count": 54,
      "max": [
        19
      ],
      "min": [
        0
      ],
      "type": "SCALAR"
    },
    {
      "bufferView": 2,
      "byteOffset": 719448,
      "componentType": 5126,
      "count": 3312,
      "max": [
        14.340732574462891,
        376.73748779296875,
        7.5391197204589844
      ],
      "min": [
        -14.340730667114258,
        -376.73748779296875,
        -15.219398498535156
      ],
      "type": "VEC3"
    },
    {
      "bufferView": 2,
      "byteOffset": 759192,
      "componentType": 5126,
      "count": 3312,
      "max": [
        0.86968111991882324,
        1,
        0.99999356269836426
      ],
      "min": [
        -0.86974167823791504,
        -1,
        -0.99999356269836426
      ],
      "type": "VEC3"
    },
    {
      "bufferView": 3,
      "byteOffset": 479632,
      "componentType": 5126,
      "count": 3312,
      "max": [
        1,
        0.75746816396713257,
        0.95500731468200684,
        1
      ],
      "min": [
        -1,
        -0.7574763298034668,
        -0.95501625537872314,
        -1
      ],
      "type": "VEC4"
    },
    {
      "bufferView": 1,
      "byteOffset": 240008,
      "componentType": 5126,
      "count": 3312,
      "max": [
        1,
        1
      ],
      "min": [
        0,
        0
      ],
      "type": "VEC2"
    },
    {
      "bufferView": 0,
      "byteOffset": 440748,
      "componentType": 5125,
      "count": 5400,
      "max": [
        3311
      ],
      "min": [
        0
      ],
      "type": "SCALAR"
    },
    {
      "bufferView": 2,
      "byteOffset": 798936,
      "componentType": 5126,
      "count": 80,
      "max": [
        914.777587890625,
        910.41424560546875,
        45.409999847412109
      ],
      "min": [
        -915.6500244140625,
        -910.41424560546875,
        0
      ],
      "type": "VEC3"
    },
    {
      "bufferView": 2,
      "byteOffset": 799896,
      "componentType": 5126,
      "count": 80,
      "max": [
        1,
        1,
        1
      ],
      "min": [
        -1,
        -1,
        -1
      ],
      "type": "VEC3"
    },
    {
      "bufferView": 3,
      "byteOffset": 532624,
      "componentType": 5126,
      "count": 80,
      "max": [
        1,
        0,
        0,
        1
      ],
      "min": [
        0,
        0,
        0,
        -1
      ],
      "type": "VEC4"
    },
    {
      "bufferView": 1,
      "byteOffset": 266504,
      "componentType": 5126,
      "count": 80,
      "max": [
        1,
        1
      ],
      "min": [
        0,
        0
      ],
      "type": "VEC2"
    },
    {
      "bufferView": 0,
      "byteOffset": 462348,
      "componentType": 5125,
      "count": 192,
      "max": [
        79
      ],
      "min": [
        0
      ],
      "type": "SCALAR"
    },
    {
      "bufferView": 4,
      "componentType": 5126,
      "count": 101,
      "max": [
        3.3333332538604736
      ],
      "min": [
        0
      ],
      "type": "SCALAR"
    },
    {
      "bufferView": 5,
      "componentType": 5126,
      "count": 101,
      "max": [
        310.53970336914062,
        -13.222479820251465,
        31.968149185180664
      ],
      "min": [
        -332.08221435546875,
        -13.222479820251465,
        31.968149185180664
      ],
      "type": "VEC3"
    }
  ],
  "animations": [
    {
      "channels": [
        {
          "sampler": 0,
          "target": {
            "node": 7,
            "path": "translation"
          }
        }
      ],
      "name": "Take 001",
      "samplers": [
        {
          "input": 27,
          "interpolation": "LINEAR",
          "output": 28
        }
      ]
    }
  ],
  "asset": {
    "extras": {
      "author": "TRYFIELD (https://sketchfab.com/tryfield)",
      "license": "CC-BY-4.0 (http://creativecommons.org/licenses/by/4.0/)",
      "source": "https://sketchfab.com/3d-models/streaming-river-5d1b8f9012754e92b4bb87a2c90cb17a",
      "title": "Streaming River"
    },
    "generator": "Sketchfab-6.94.0",
    "version": "2.0"
  },
  "bufferViews": [
    {
      "buffer": 0,
      "byteLength": 463116,
      "byteOffset": 0,
      "name": "floatBufferViews",
      "target": 34963
    },
    {
      "buffer": 0,
      "byteLength": 267144,
      "byteOffset": 463116,
      "byteStride": 8,
      "name": "floatBufferViews",
      "target": 34962
    },
    {
      "buffer": 0,
      "byteLength": 800856,
      "byteOffset": 730260,
      "byteStride": 12,
      "name": "floatBufferViews",
      "target": 34962
    },
    {
      "buffer": 0,
      "byteLength": 533904,
      "byteOffset": 1531116,
      "byteStride": 16,
      "name": "floatBufferViews",
      "target": 34962
    },
    {
      "buffer": 0,
      "byteLength": 404,
      "byteOffset": 2065020,
      "name": "floatBufferViews"
    },
    {
      "buffer": 0,
      "byteLength": 1212,
      "byteOffset": 2065424,
      "byteStride": 12,
      "name": "floatBufferViews"
    }
  ],
  "buffers": [
    {
      "byteLength": 2066636,
      "uri": "scene.bin"
    }
  ],
  "images": [
    {
      "uri": "textures/water_baseColor.jpeg"
    },
    {
      "uri": "textures/water_metallicRoughness.png"
    },
    {
      "uri": "textures/water_0_baseColor.png"
    },
    {
      "uri": "textures/water_0_metallicRoughness.png"
    },
    {
      "uri": "textures/Material_25_baseColor.png"
    },
    {
      "uri": "textures/Material_25_metallicRoughness.png"
    }
  ],
  "materials": [
    {
      "doubleSided": false,
      "name": "water",
      "occlusionTexture": {
        "index": 1,
        "strength": 1,
        "texCoord": 0
      },
      "pbrMetallicRoughness": {
        "baseColorFactor": [
          0.92854420731707321,
          0.92854420731707321,
          0.92854420731707321,
          1
        ],
        "baseColorTexture": {
          "index": 0,
          "texCoord": 0
        },
        "metallicFactor": 0.032202743902439025,
        "metallicRoughnessTexture": {
          "index": 1,
          "texCoord": 0
        },
        "roughnessFactor": 0.080983231707317069
      }
    },
    {
      "alphaMode": "BLEND",
      "doubleSided": false,
      "name": "water_0",
      "occlusionTexture": {
        "index": 3,
        "strength": 1,
        "texCoord": 0
      },
      "pbrMetallicRoughness": {
        "baseColorFactor": [
          1,
          1,
          1,
          0.87976371951219512
        ],
        "baseColorTexture": {
          "index": 2,
          "texCoord": 0
        },
        "metallicFactor": 0,
        "metallicRoughnessTexture": {
          "index": 3,
          "texCoord": 0
        },
        "roughnessFactor": 0.44073932926829268
      }
    },
    {
      "alphaCutoff": 1,
      "alphaMode": "MASK",
      "doubleSided": false,
      "emissiveFactor": [
        0,
        0,
        0
      ],
      "name": "Material_25",
      "occlusionTexture": {
        "index": 5,
        "strength": 1,
        "texCoord": 0
      },
      "pbrMetallicRoughness": {
        "baseColorFactor": [
          0.70293445121951215,
          0.70293445121951215,
          0.70293445121951215,
          1
        ],
        "baseColorTexture": {
          "index": 4,
          "texCoord": 0
        },
        "metallicFactor": 0,
        "metallicRoughnessTexture": {
          "index": 5,
          "texCoord": 0
        },
        "roughnessFactor": 0.46512957317073172
      }
    },
    {
      "doubleSided": true,
      "emissiveFactor": [
        0,
        0,
        0
      ],
      "name": "04_-_Default",
      "pbrMetallicRoughness": {
        "baseColorFactor": [
          0,
          0,
          0,
          1
        ],
        "metallicFactor": 0,
        "roughnessFactor": 0
      }
    }
  ],
  "meshes": [
    {
      "name": "Plane001_water_0",
      "primitives": [
        {
          "attributes": {
            "NORMAL": 1,
            "POSITION": 0,
            "TANGENT": 2,
            "TEXCOORD_0": 3
          },
          "indices": 4,
          "material": 0,
          "mode": 4
        }
      ]
    },
    {
      "name": "Plane002_water_0",
      "primitives": [
        {
          "attributes": {
            "NORMAL": 6,
            "POSITION": 5,
            "TANGENT": 7,
            "TEXCOORD_0": 8,
            "TEXCOORD_1": 9
          },
          "indices": 10,
          "material": 1,
          "mode": 4
        }
      ]
    },
    {
      "name": "Plane003_Material #25_0",
      "primitives": [
        {
          "attributes": {
            "NORMAL": 12,
            "POSITION": 11,
            "TANGENT": 13,
            "TEXCOORD_0": 14,
            "TEXCOORD_1": 15
          },
          "indices": 16,
          "material": 2,
          "mode": 4
        }
      ]
    },
    {
      "name": "Line006_04 - Default_0",
      "primitives": [
        {
          "attributes": {
            "NORMAL": 18,
            "POSITION": 17,
            "TANGENT": 19,
            "TEXCOORD_0": 20
          },
          "indices": 21,
          "material": 3,
          "mode": 4
        }
      ]
    },
    {
      "name": "Plane006_04 - Default_0",
      "primitives": [
        {
          "attributes": {
            "NORMAL": 23,
            "POSITION": 22,
            "TANGENT": 24,
            "TEXCOORD_0": 25
          },
          "indices": 26,
          "material": 3,
          "mode": 4
        }
      ]
    }
  ],
  "nodes": [
    {
      "children": [
        1
      ],
      "name": "RootNode (gltf orientation matrix)",
      "rotation": [
        -0.70710678118654746,
        -0,
        -0,
        0.70710678118654757
      ]
    },
    {
      "children": [
        2
      ],
      "name": "RootNode (model correction matrix)"
    },
    {
      "children": [
        3
      ],
      "matrix": [
        1,
        0,
        0,
        0,
        0,
        0,
        1,
        0,
        0,
        -1,
        0,
        0,
        0,
        0,
        0,
        1
      ],
      "name": "0c33840f6f9d48329b0edc520751f1ae.fbx"
    },
    {
      "children": [
        4
      ],
      "name": ""
    },
    {
      "children": [
        5,
        7,
        9,
        11,
        13
      ],
      "name": "RootNode"
    },
    {
      "children": [
        6
      ],
      "name": "Plane001",
      "rotation": [
        -0.7071068286895752,
        -0,
        0,
        0.7071068286895752
      ],
      "scale": [
        1,
        1,
        1.3594579696655273
      ],
      "translation": [
        -11.206609725952148,
        0,
        31.96815299987793
      ]
    },
    {
      "mesh": 0,
      "name": "Plane001_water_0"
    },
    {
      "children": [
        8
      ],
      "name": "Plane002",
      "rotation": [
        -0.7071068286895752,
        -0,
        0,
        0.7071068286895752
      ],
      "scale": [
        1,
        1.2512609958648682,
        1
      ],
      "translation": [
        310.53973388671875,
        -13.222480773925781,
        31.96815299987793
      ]
    },
    {
      "mesh": 1,
      "name": "Plane002_water_0"
    },
    {
      "children": [
        10
      ],
      "name": "Plane003",
      "rotation": [
        -0.7071068286895752,
        -0,
        0,
        0.7071068286895752
      ],
      "translation": [
        -11.206609725952148,
        30.816413879394531,
        31.96815299987793
      ]
    },
    {
      "mesh": 2,
      "name": "Plane003_Material #25_0"
    },
    {
      "children": [
        12
      ],
      "name": "Line006",
      "rotation": [
        -0.7071068286895752,
        -0,
        0,
        0.7071068286895752
      ],
      "translation": [
        -18.257833480834961,
        37.844345092773438,
        31.8646240234375
      ]
    },
    {
      "mesh": 3,
      "name": "Line006_04 - Default_0"
    },
    {
      "children": [
        14
      ],
      "name": "Plane006",
      "rotation": [
        -0.7071068286895752,
        -0,
        0,
        0.7071068286895752
      ],
      "translation": [
        -11.206611633300781,
        -34.585273742675781,
        31.96815299987793
      ]
    },
    {
      "mesh": 4,
      "name": "Plane006_04 - Default_0"
    }
  ],
  "samplers": [
    {
      "magFilter": 9729,
      "minFilter": 9987,
      "wrapS": 10497,
      "wrapT": 10497
    }
  ],
  "scene": 0,
  "scenes": [
    {
      "name": "OSG_Scene",
      "nodes": [
        0
      ]
    }
  ],
  "textures": [
    {
      "sampler": 0,
      "source": 0
    },
    {
      "sampler": 0,
      "source": 1
    },
    {
      "sampler": 0,
      "source": 2
    },
    {
      "sampler": 0,
      "source": 3
    },
    {
      "sampler": 0,
      "source": 4
    },
    {
      "sampler": 0,
      "source": 5
    }
  ]
}

