{
  "accessors": [
    {
      "bufferView": 2,
      "componentType": 5126,
      "count": 15287,
      "max": [
        15.748031616210938,
        13.68110466003418,
        11.600566864013672
      ],
      "min": [
        -24.114173889160156,
        -14.486988067626953,
        -9.645665168762207
      ],
      "type": "VEC3"
    },
    {
      "bufferView": 2,
      "byteOffset": 183444,
      "componentType": 5126,
      "count": 15287,
      "max": [
        1,
        1,
        1
      ],
      "min": [
        -1,
        -1,
        -1
      ],
      "type": "VEC3"
    },
    {
      "bufferView": 3,
      "componentType": 5126,
      "count": 15287,
      "max": [
        1,
        1,
        1,
        1
      ],
      "min": [
        -1,
        -1,
        -1,
        -1
      ],
      "type": "VEC4"
    },
    {
      "bufferView": 1,
      "componentType": 5126,
      "count": 15287,
      "max": [
        0.90658050775527954,
        0.99716049432754517
      ],
      "min": [
        0.0020000003278255463,
        0.0019999996293336153
      ],
      "type": "VEC2"
    },
    {
      "bufferView": 0,
      "componentType": 5125,
      "count": 51111,
      "max": [
        15286
      ],
      "min": [
        0
      ],
      "type": "SCALAR"
    },
    {
      "bufferView": 2,
      "byteOffset": 366888,
      "componentType": 5126,
      "count": 13167,
      "max": [
        31.248626708984375,
        5.433074951171875,
        -0.41355505585670471
      ],
      "min": [
        13.090227127075195,
        -11.817714691162109,
        -15.333621025085449
      ],
      "type": "VEC3"
    },
    {
      "bufferView": 2,
      "byteOffset": 524892,
      "componentType": 5126,
      "count": 13167,
      "max": [
        1,
        1,
        1
      ],
      "min": [
        -1,
        -1,
        -1
      ],
      "type": "VEC3"
    },
    {
      "bufferView": 3,
      "byteOffset": 244592,
      "componentType": 5126,
      "count": 13167,
      "max": [
        1,
        1,
        0.98480057716369629,
        1
      ],
      "min": [
        -1,
        -1,
        -0.93939888477325439,
        -1
      ],
      "type": "VEC4"
    },
    {
      "bufferView": 1,
      "byteOffset": 122296,
      "componentType": 5126,
      "count": 13167,
      "max": [
        0.99700397253036499,
        0.96248644590377808
      ],
      "min": [
        0.0029959999956190586,
        0.0029959999956190586
      ],
      "type": "VEC2"
    },
    {
      "bufferView": 0,
      "byteOffset": 204444,
      "componentType": 5125,
      "count": 35586,
      "max": [
        13166
      ],
      "min": [
        0
      ],
      "type": "SCALAR"
    }
  ],
  "asset": {
    "extras": {
      "author": "Francesco Coldesina (https://sketchfab.com/topfrank2013)",
      "license": "CC-BY-4.0 (http://creativecommons.org/licenses/by/4.0/)",
      "source": "https://sketchfab.com/models/293315f6b5834985bdcf844d40891a97",
      "title": "Water Motor Pump"
    },
    "generator": "Sketchfab-3.19.2",
    "version": "2.0"
  },
  "bufferViews": [
    {
      "buffer": 0,
      "byteLength": 346788,
      "byteOffset": 0,
      "name": "floatBufferViews",
      "target": 34963
    },
    {
      "buffer": 0,
      "byteLength": 227632,
      "byteOffset": 346788,
      "byteStride": 8,
      "name": "floatBufferViews",
      "target": 34962
    },
    {
      "buffer": 0,
      "byteLength": 682896,
      "byteOffset": 574420,
      "byteStride": 12,
      "name": "floatBufferViews",
      "target": 34962
    },
    {
      "buffer": 0,
      "byteLength": 455264,
      "byteOffset": 1257316,
      "byteStride": 16,
      "name": "floatBufferViews",
      "target": 34962
    }
  ],
  "buffers": [
    {
      "byteLength": 1712580,
      "uri": "scene.bin"
    }
  ],
  "images": [
    {
      "uri": "textures/Motore2_metallicRoughness.png"
    },
    {
      "uri": "textures/Motore2_normal.png"
    },
    {
      "uri": "textures/Motore2_baseColor.jpeg"
    },
    {
      "uri": "textures/Telaio2_normal.png"
    },
    {
      "uri": "textures/Telaio2_baseColor.jpeg"
    }
  ],
  "materials": [
    {
      "doubleSided": true,
      "emissiveFactor": [
        0,
        0,
        0
      ],
      "name": "Telaio2",
      "normalTexture": {
        "index": 3,
        "scale": 1,
        "texCoord": 0
      },
      "pbrMetallicRoughness": {
        "baseColorFactor": [
          1,
          1,
          1,
          1
        ],
        "baseColorTexture": {
          "index": 4,
          "texCoord": 0
        },
        "metallicFactor": 1,
        "roughnessFactor": 0.35999999999999999
      }
    },
    {
      "doubleSided": true,
      "emissiveFactor": [
        0,
        0,
        0
      ],
      "name": "Motore2",
      "normalTexture": {
        "index": 1,
        "scale": 1,
        "texCoord": 0
      },
      "occlusionTexture": {
        "index": 0,
        "strength": 1,
        "texCoord": 0
      },
      "pbrMetallicRoughness": {
        "baseColorFactor": [
          1,
          1,
          1,
          1
        ],
        "baseColorTexture": {
          "index": 2,
          "texCoord": 0
        },
        "metallicFactor": 0,
        "roughnessFactor": 0.59999999999999998
      }
    }
  ],
  "meshes": [
    {
      "name": "Telaio1_Telaio2_0",
      "primitives": [
        {
          "attributes": {
            "NORMAL": 1,
            "POSITION": 0,
            "TANGENT": 2,
            "TEXCOORD_0": 3
          },
          "indices": 4,
          "material": 0,
          "mode": 4
        }
      ]
    },
    {
      "name": "Motore1_Motore2_0",
      "primitives": [
        {
          "attributes": {
            "NORMAL": 6,
            "POSITION": 5,
            "TANGENT": 7,
            "TEXCOORD_0": 8
          },
          "indices": 9,
          "material": 1,
          "mode": 4
        }
      ]
    }
  ],
  "nodes": [
    {
      "children": [
        1
      ],
      "name": "RootNode (gltf orientation matrix)",
      "rotation": [
        -0.70710678118654746,
        -0,
        -0,
        0.70710678118654757
      ]
    },
    {
      "children": [
        2
      ],
      "name": "RootNode (model correction matrix)"
    },
    {
      "children": [
        3
      ],
      "matrix": [
        1,
        0,
        0,
        0,
        0,
        0,
        1,
        0,
        0,
        -1,
        0,
        0,
        0,
        0,
        0,
        1
      ],
      "name": "Water Motor Pump.fbx"
    },
    {
      "children": [
        4,
        6
      ],
      "name": "RootNode"
    },
    {
      "children": [
        5
      ],
      "matrix": [
        1,
        0,
        0,
        0,
        0,
        -0.99999994039535522,
        -1.1924879606100271e-08,
        0,
        0,
        1.1924879606100271e-08,
        -0.99999994039535522,
        0,
        4.1830711364746094,
        -0.40294265747070312,
        0.97744894027709961,
        1
      ],
      "name": "Telaio1"
    },
    {
      "mesh": 0,
      "name": "Telaio1_Telaio2_0"
    },
    {
      "children": [
        7
      ],
      "matrix": [
        1,
        0,
        0,
        0,
        0,
        -0.99999994039535522,
        -1.1924879606100271e-08,
        0,
        0,
        1.1924879606100271e-08,
        -0.99999994039535522,
        0,
        -11.663385391235352,
        -3.9462482929229736,
        -7.7823939323425293,
        1
      ],
      "name": "Motore1"
    },
    {
      "mesh": 1,
      "name": "Motore1_Motore2_0"
    }
  ],
  "samplers": [
    {
      "magFilter": 9729,
      "minFilter": 9987,
      "wrapS": 10497,
      "wrapT": 10497
    }
  ],
  "scene": 0,
  "scenes": [
    {
      "name": "OSG_Scene",
      "nodes": [
        0
      ]
    }
  ],
  "textures": [
    {
      "sampler": 0,
      "source": 0
    },
    {
      "sampler": 0,
      "source": 1
    },
    {
      "sampler": 0,
      "source": 2
    },
    {
      "sampler": 0,
      "source": 3
    },
    {
      "sampler": 0,
      "source": 4
    }
  ]
}

