{
  "accessors": [
    {
      "bufferView": 2,
      "componentType": 5126,
      "count": 48239,
      "max": [
        44.397464752197266,
        27.814050674438477,
        -16.192367553710938
      ],
      "min": [
        -48.681270599365234,
        -10.688510894775391,
        -30.202629089355469
      ],
      "type": "VEC3"
    },
    {
      "bufferView": 2,
      "byteOffset": 578868,
      "componentType": 5126,
      "count": 48239,
      "max": [
        0.99993336200714111,
        0.99146205186843872,
        0.99999713897705078
      ],
      "min": [
        -0.99949777126312256,
        -0.99983513355255127,
        -0.93873339891433716
      ],
      "type": "VEC3"
    },
    {
      "bufferView": 3,
      "componentType": 5126,
      "count": 48239,
      "max": [
        0.99990290403366089,
        0.99999046325683594,
        0.9999847412109375,
        1
      ],
      "min": [
        -0.99963349103927612,
        -0.99999505281448364,
        -0.99999123811721802,
        -1
      ],
      "type": "VEC4"
    },
    {
      "bufferView": 1,
      "componentType": 5126,
      "count": 48239,
      "max": [
        0.98830962181091309,
        0.99871152639389038
      ],
      "min": [
        0.0012885343749076128,
        0.0012885343749076128
      ],
      "type": "VEC2"
    },
    {
      "bufferView": 0,
      "componentType": 5125,
      "count": 200982,
      "max": [
        48238
      ],
      "min": [
        0
      ],
      "type": "SCALAR"
    }
  ],
  "asset": {
    "extras": {
      "author": "GSXNet (https://sketchfab.com/gsxn)",
      "license": "CC-BY-NC-4.0 (http://creativecommons.org/licenses/by-nc/4.0/)",
      "source": "https://sketchfab.com/models/bf4bd5df05134faea2c86bc85cb90a3d",
      "title": "Dead Sea Qumran"
    },
    "generator": "Sketchfab-3.18.7",
    "version": "2.0"
  },
  "bufferViews": [
    {
      "buffer": 0,
      "byteLength": 803928,
      "byteOffset": 0,
      "name": "floatBufferViews",
      "target": 34963
    },
    {
      "buffer": 0,
      "byteLength": 385912,
      "byteOffset": 803928,
      "byteStride": 8,
      "name": "floatBufferViews",
      "target": 34962
    },
    {
      "buffer": 0,
      "byteLength": 1157736,
      "byteOffset": 1189840,
      "byteStride": 12,
      "name": "floatBufferViews",
      "target": 34962
    },
    {
      "buffer": 0,
      "byteLength": 771824,
      "byteOffset": 2347576,
      "byteStride": 16,
      "name": "floatBufferViews",
      "target": 34962
    }
  ],
  "buffers": [
    {
      "byteLength": 3119400,
      "uri": "scene.bin"
    }
  ],
  "extensionsUsed": [
    "KHR_materials_unlit"
  ],
  "images": [
    {
      "uri": "textures/DeadSea_baseColor.jpg"
    }
  ],
  "materials": [
    {
      "doubleSided": true,
      "extensions": {
        "KHR_materials_unlit": {}
      },
      "name": "DeadSea",
      "pbrMetallicRoughness": {
        "baseColorFactor": [
          1,
          1,
          1,
          1
        ],
        "baseColorTexture": {
          "index": 0,
          "texCoord": 0
        },
        "metallicFactor": 0,
        "roughnessFactor": 1
      }
    }
  ],
  "meshes": [
    {
      "name": "Model.001_DeadSea_0",
      "primitives": [
        {
          "attributes": {
            "NORMAL": 1,
            "POSITION": 0,
            "TANGENT": 2,
            "TEXCOORD_0": 3
          },
          "indices": 4,
          "material": 0,
          "mode": 4
        }
      ]
    }
  ],
  "nodes": [
    {
      "children": [
        1
      ],
      "name": "RootNode (gltf orientation matrix)",
      "rotation": [
        -0.70710678118654746,
        -0,
        -0,
        0.70710678118654757
      ]
    },
    {
      "children": [
        2
      ],
      "matrix": [
        -0.99907511472702026,
        -0.0012790941400453448,
        0.042980607599020004,
        0,
        0,
        0.9995574951171875,
        0.029746627435088158,
        0,
        -0.042999636381864548,
        0.029719114303588867,
        -0.99863296747207642,
        0,
        -1612.01318359375,
        -69.941307067871094,
        4666.75537109375,
        1
      ],
      "name": "RootNode (model correction matrix)"
    },
    {
      "children": [
        3
      ],
      "matrix": [
        1,
        0,
        0,
        0,
        0,
        -1,
        0,
        0,
        0,
        0,
        -1,
        0,
        0,
        0,
        0,
        1
      ],
      "name": "a92d002f0d01477c934647238fc99d31.fbx"
    },
    {
      "children": [
        4
      ],
      "name": "RootNode"
    },
    {
      "children": [
        5
      ],
      "matrix": [
        -1.6292067939183141e-05,
        99.999999999998678,
        0,
        0,
        -99.999999999998678,
        -1.6292067939183141e-05,
        0,
        0,
        0,
        0,
        100,
        0,
        0,
        0,
        0,
        1
      ],
      "name": "Model.001"
    },
    {
      "mesh": 0,
      "name": "Model.001_DeadSea_0"
    }
  ],
  "samplers": [
    {
      "magFilter": 9729,
      "minFilter": 9987,
      "wrapS": 10497,
      "wrapT": 10497
    }
  ],
  "scene": 0,
  "scenes": [
    {
      "name": "OSG_Scene",
      "nodes": [
        0
      ]
    }
  ],
  "textures": [
    {
      "sampler": 0,
      "source": 0
    }
  ]
}

